<svg xmlns="http://www.w3.org/2000/svg" fill="none" viewBox="0 0 100 100">
    <path fill="#fff" d="M62.631 26.55a.941.941 0 0 1 .856-.55H95.3c.686 0 1.141.71.856 1.333l-21.1 46.117a.941.941 0 0 1-.855.55H42.387a.941.941 0 0 1-.855-1.333l21.1-46.117ZM25.924 26.55a.941.941 0 0 1 .856-.55h31.812c.686 0 1.141.71.856 1.333l-21.1 46.117a.941.941 0 0 1-.855.55H5.68a.941.941 0 0 1-.855-1.333l21.1-46.117Z"/>
    
    <style>
        @media (prefers-color-scheme: dark) {
            svg {
                filter: invert(1);
            }]
        }
    </style>
    
</svg>