<svg viewBox="0 0 399 398" id="socialSprites">
  <g class="sprite" id="discord">
    <path d="M317.519 189.893C317.519 175.103 305.519 163.104 290.729 163.104C283.609 163.104 277.179 165.893 272.349 170.393C256.279 157.803 234.639 149.444 210.479 147.464L224.189 106.374L258.739 123.674C258.689 124.314 258.579 124.904 258.579 125.604C258.579 134.494 265.759 141.674 274.649 141.674C283.539 141.674 290.719 134.494 290.719 125.604C290.719 116.714 283.489 109.534 274.649 109.534C270.309 109.534 266.399 111.244 263.509 114.034L228.639 96.6236C226.019 95.2836 222.909 95.1236 220.119 96.2436C217.329 97.3636 215.139 99.6135 214.169 102.513L199.329 147.034C170.939 147.084 145.329 156.033 126.959 170.393C122.139 165.893 115.709 163.104 108.579 163.104C93.789 163.104 81.7891 175.103 81.7891 189.893C81.7891 201.193 88.809 210.894 98.719 214.804C98.129 218.074 97.859 221.344 97.859 224.714C97.859 267.624 143.449 302.393 199.639 302.393C255.829 302.393 301.419 267.624 301.419 224.714C301.419 221.344 301.149 218.074 300.559 214.804C310.469 210.894 317.489 201.193 317.489 189.893H317.519ZM146.089 211.324C146.089 202.434 153.269 195.253 162.159 195.253C171.049 195.253 178.229 202.434 178.229 211.324C178.229 220.214 171.049 227.393 162.159 227.393C153.269 227.393 146.089 220.214 146.089 211.324ZM241.609 257.124C241.129 257.874 228.969 275.604 199.659 275.604C170.349 275.604 158.199 257.874 157.709 257.124C156.049 254.664 156.689 251.334 159.159 249.734C161.619 248.074 164.939 248.774 166.609 251.184C166.989 251.774 176.359 264.893 199.659 264.893C222.959 264.893 232.339 251.714 232.709 251.184C234.369 248.774 237.689 248.134 240.159 249.794C242.569 251.404 243.209 254.723 241.609 257.133V257.124ZM237.159 227.393C228.269 227.393 221.089 220.214 221.089 211.324C221.089 202.434 228.269 195.253 237.159 195.253C246.049 195.253 253.229 202.434 253.229 211.324C253.229 220.214 246.049 227.393 237.159 227.393Z" fill="white"></path>
  </g>
  <g class="sprite" id="facebook">
    <path d="M257.549 183.26L254.239 209.84C253.679 214.28 249.919 217.62 245.459 217.62H202.409V328.75C197.869 329.16 193.269 329.37 188.619 329.37C178.219 329.37 168.069 328.33 158.259 326.35V217.62H125.149C122.109 217.62 119.629 215.13 119.629 212.08V178.82C119.629 175.77 122.109 173.28 125.149 173.28H158.259V123.4C158.259 92.7905 182.969 67.9805 213.459 67.9805H252.089C255.129 67.9805 257.609 70.4704 257.609 73.5204V106.78C257.609 109.83 255.129 112.32 252.089 112.32H224.489C212.299 112.32 202.419 122.24 202.419 134.49V173.29H248.779C254.099 173.29 258.209 177.97 257.559 183.27L257.549 183.26Z" fill="white"></path>
  </g>
  <g class="sprite" id="dribbble">
    <path d="M198.68 66.3086C125.49 66.3086 66.1797 125.609 66.1797 198.809C66.1797 272.009 125.48 331.309 198.68 331.309C271.88 331.309 331.18 272.009 331.18 198.809C331.18 125.609 271.88 66.3086 198.68 66.3086ZM312.86 196.249C289.88 189.669 261.28 185.789 231.53 192.369C228.38 185.289 225.13 178.479 221.84 171.949C251.86 158.969 273.65 141.799 288 127.719C303.12 146.629 312.31 170.349 312.85 196.249H312.86ZM198.68 84.5886C228.24 84.5886 255.2 95.8286 275.48 114.329C262.23 127.349 241.72 143.659 213.3 155.719C196.08 124.609 178.62 101.259 168.43 88.6986C178.07 85.9986 188.21 84.5886 198.68 84.5886ZM150.2 95.4186C158.24 105.009 176.97 128.909 195.71 162.309C153.72 175.929 108.99 177.109 86.6497 176.659C93.7297 140.609 117.81 110.639 150.2 95.4286V95.4186ZM84.4497 198.809C84.4497 197.529 84.4497 196.209 84.5397 194.929C87.6497 195.019 91.2097 195.069 95.1397 195.069C121.09 195.069 163.72 192.509 204.43 178.669C207.54 184.699 210.55 191.009 213.48 197.539C155.91 217.049 125.3 256.069 113.42 274.749C95.4197 254.559 84.4497 227.969 84.4497 198.819V198.809ZM198.67 313.029C171.53 313.029 146.59 303.529 126.99 287.669V287.619C135.72 273.089 164.04 233.159 220.65 214.339C231.43 241.429 240.07 271.719 243.45 303.839C229.7 309.779 214.57 313.019 198.68 313.019L198.67 313.029ZM260.81 294.619C256.88 264.049 248.7 235.409 238.61 209.549C265.25 204.429 291.2 208.769 311.71 215.119C306.96 248.379 287.82 277.029 260.81 294.619Z" fill="white"></path>
  </g>
  <g class="sprite" id="instagram">
    <path d="M253.569 94.4609H145.759C117.979 94.4609 95.4492 116.991 95.4492 144.771V252.581C95.4492 280.361 117.979 302.891 145.759 302.891H253.569C281.349 302.891 303.879 280.361 303.879 252.581V144.771C303.879 116.991 281.349 94.4609 253.569 94.4609ZM285.909 248.981C285.909 268.821 269.809 284.921 249.969 284.921H149.349C129.509 284.921 113.409 268.821 113.409 248.981V148.361C113.409 128.521 129.509 112.421 149.349 112.421H249.969C269.809 112.421 285.909 128.521 285.909 148.361V248.981Z" fill="white"></path>
    <path d="M199.771 144.77C170.021 144.77 145.871 168.92 145.871 198.67C145.871 228.42 170.021 252.57 199.771 252.57C229.521 252.57 253.671 228.42 253.671 198.67C253.671 168.92 229.521 144.77 199.771 144.77ZM199.771 234.61C179.971 234.61 163.831 218.47 163.831 198.67C163.831 178.87 179.971 162.73 199.771 162.73C219.571 162.73 235.711 178.87 235.711 198.67C235.711 218.47 219.571 234.61 199.771 234.61Z" fill="white"></path>
    <path d="M257.268 151.962C263.222 151.962 268.048 147.136 268.048 141.182C268.048 135.229 263.222 130.402 257.268 130.402C251.315 130.402 246.488 135.229 246.488 141.182C246.488 147.136 251.315 151.962 257.268 151.962Z" fill="white"></path>
  </g>
  <g class="sprite" id="linkedin">
    <path d="M129.301 145.7C143.434 145.7 154.891 134.242 154.891 120.109C154.891 105.977 143.434 94.5195 129.301 94.5195C115.168 94.5195 103.711 105.977 103.711 120.109C103.711 134.242 115.168 145.7 129.301 145.7Z" fill="white"></path>
    <path d="M148.713 162.75H109.883C108.828 162.75 107.973 163.605 107.973 164.66V288.78C107.973 289.835 108.828 290.69 109.883 290.69H148.713C149.768 290.69 150.623 289.835 150.623 288.78V164.66C150.623 163.605 149.768 162.75 148.713 162.75Z" fill="white"></path>
    <path d="M295.631 209.668V282.168C295.631 286.858 291.791 290.698 287.101 290.698H261.511C256.821 290.698 252.981 286.858 252.981 282.168V222.458C252.981 210.688 243.431 201.138 231.661 201.138C219.891 201.138 210.341 210.688 210.341 222.458V282.168C210.341 286.858 206.501 290.698 201.811 290.698H176.221C171.531 290.698 167.691 286.858 167.691 282.168V171.278C167.691 166.588 171.531 162.748 176.221 162.748H201.811C206.501 162.748 210.341 166.588 210.341 171.278V176.738C218.871 165.688 232.991 158.488 248.721 158.488C272.261 158.488 295.631 175.548 295.631 209.668Z" fill="white"></path>
  </g>
  <g class="sprite" id="pinterest">
    <path d="M152.01 321.059C155.88 317.449 172.02 300.749 180.52 266.129L186.93 239.809C192.94 246.069 201.29 250.249 210.09 252.389C245.68 261.149 280.14 223.119 289.1 186.559C301.68 135.389 275.56 90.2389 232.28 79.6489C182.44 67.4289 123.64 91.7688 109.28 150.259C104.24 170.829 105.92 201.929 133.82 216.749C136.67 218.279 140.18 216.699 140.95 213.539L144.87 197.709C145.28 195.879 144.56 193.989 143.14 192.719C133.21 183.709 130.92 168.999 134.28 155.199C144 115.639 184.68 99.3989 219.3 107.899C249.34 115.279 267.61 145.929 259.11 180.549C253.05 205.289 235.89 232.529 211.15 226.469C196.33 222.859 194.65 208.349 198.68 191.949L207.74 154.889C210.08 145.319 204.23 135.649 194.71 133.299C185.14 130.959 170.02 137.729 165.18 157.529C162.33 169.089 164.67 178.349 169.05 184.459L150.82 258.839C142.42 293.099 148.78 315.249 150.67 320.539" fill="white"></path>
  </g>
  <g class="sprite" id="snapchat">
    <path d="M319.56 269.77C313.82 273.76 305.55 277.811 294.51 280.491C292.49 280.931 290.85 282.42 290.28 284.42L289.14 288.66C287.75 293.52 283.33 297.01 278.22 297.26C229.38 299.88 235.62 318.14 199.65 318.14C163.68 318.14 169.93 299.88 121.08 297.26C115.97 297.01 111.55 293.52 110.16 288.66L109.02 284.42C108.45 282.43 106.81 280.931 104.79 280.491C93.75 277.811 85.48 273.76 79.74 269.77C74.25 265.97 75.0699 257.801 81.0699 254.871C127.45 232.251 126.95 208.06 126.95 208.06L105.18 191.731C98.4899 186.741 96.72 177.64 101.01 170.54C104.04 165.55 109.47 162.621 115.08 162.621C116.47 162.621 117.79 162.811 119.12 163.121L132.81 166.55C131.11 160.69 130.22 154.46 130.22 148.04C130.22 110.15 161.27 79.4805 199.64 79.4805C238.01 79.4805 269.06 110.14 269.06 148.04C269.06 154.46 268.18 160.69 266.47 166.55L280.16 163.121C287.16 161.381 294.55 164.37 298.27 170.54C299.85 173.16 300.6 176.02 300.6 178.89C300.6 183.75 298.33 188.551 294.1 191.731L272.33 208.06C272.33 208.06 271.83 232.241 318.21 254.871C324.21 257.801 325.03 265.96 319.54 269.77H319.56Z" fill="white"></path>
  </g>
  <g class="sprite" id="twitch">
    <path d="M286.932 87.6836H144.302C142.272 87.6836 140.322 88.4836 138.882 89.9236L105.012 123.794C103.572 125.234 102.762 127.184 102.762 129.224V264.154C102.762 268.394 106.202 271.814 110.432 271.814H152.642V306.434C152.642 309.794 156.702 311.484 159.082 309.104L196.372 271.814H222.352C224.382 271.814 226.332 271.014 227.772 269.574L292.342 205.014C293.782 203.574 294.592 201.624 294.592 199.594V95.3536C294.592 91.1136 291.152 87.6936 286.922 87.6936L286.932 87.6836ZM288.372 194.834C288.372 198.284 287.022 201.544 284.582 203.984L261.272 227.294C258.782 229.754 255.552 231.084 252.122 231.084H221.642L197.422 255.304C195.282 257.444 192.432 258.634 189.422 258.634C183.162 258.634 178.062 253.544 178.062 247.284V231.084H152.642C145.492 231.084 139.692 225.274 139.692 218.134V106.864C139.692 99.7236 145.502 93.9136 152.642 93.9136H275.422C282.562 93.9136 288.372 99.7236 288.372 106.864V194.824V194.834Z" fill="white"></path>
    <path d="M275.421 103.023H152.641C150.521 103.023 148.801 104.734 148.801 106.864V218.133C148.801 220.243 150.511 221.974 152.641 221.974H187.171V247.293C187.171 249.283 189.571 250.274 190.971 248.874L217.861 221.984H252.111C253.121 221.984 254.101 221.574 254.821 220.864L278.131 197.553C278.851 196.833 279.251 195.854 279.251 194.844V106.883C279.251 104.763 277.531 103.043 275.411 103.043L275.421 103.023ZM210.191 175.013C210.191 175.513 209.781 175.923 209.281 175.923H195.761C195.251 175.923 194.851 175.513 194.851 175.013V130.793C194.851 130.283 195.251 129.883 195.761 129.883H209.281C209.781 129.883 210.191 130.283 210.191 130.793V175.013ZM256.231 175.013C256.231 175.513 255.821 175.923 255.321 175.923H241.801C241.301 175.923 240.891 175.513 240.891 175.013V130.793C240.891 130.283 241.301 129.883 241.801 129.883H255.321C255.821 129.883 256.231 130.283 256.231 130.793V175.013Z" fill="white"></path>
  </g>
  <g class="sprite" id="tiktok">
    <path d="M239.049 250.132V151.692C239.049 151.692 250.149 170.192 290.269 171.322C292.409 171.382 294.179 169.622 294.179 167.482V139.662C294.179 137.592 292.529 135.952 290.459 135.832C259.339 134.072 244.559 110.202 243.109 88.3121C242.979 86.2821 241.199 84.7422 239.169 84.7422H207.439C205.329 84.7422 203.609 86.4521 203.609 88.5721V245.062C203.609 262.062 190.619 276.852 173.639 277.652C154.229 278.572 138.449 261.912 140.849 242.222C142.549 228.312 153.709 216.922 167.589 214.992C170.349 214.612 173.039 214.582 175.649 214.872C177.959 215.132 179.989 213.412 179.989 211.092V183.202C179.989 181.222 178.479 179.502 176.499 179.382C172.519 179.122 168.439 179.212 164.299 179.682C133.689 183.152 108.989 207.922 105.599 238.542C101.129 278.932 132.629 313.122 172.119 313.122C209.089 313.122 239.059 283.152 239.059 246.182" fill="white"></path>
  </g>
  <g class="sprite" id="whatsapp">
    <path d="M198.951 71.6427C137.551 73.6327 86.8309 123.363 83.7609 184.723C82.6509 206.843 87.5309 227.753 97.0209 245.903L83.6908 305.603C83.1308 308.303 85.5208 310.693 88.2208 310.133L147.921 296.803H147.961C165.991 306.223 186.681 311.103 208.641 310.083C269.901 307.243 319.791 256.913 322.161 195.633C324.841 126.233 268.271 69.3927 198.961 71.6427H198.951ZM202.921 285.533C185.561 285.533 169.301 280.843 155.321 272.653C154.001 271.913 152.731 271.133 151.491 270.303L113.351 280.463L123.511 242.323C113.881 227.513 108.291 209.863 108.291 190.893C108.291 138.723 150.751 96.2627 202.921 96.2627C255.091 96.2627 297.551 138.723 297.551 190.893C297.551 243.063 255.091 285.523 202.921 285.523V285.533Z" fill="white"></path>
    <path d="M259.04 232.553C257.39 235.033 255.66 237.343 252.89 240.103C246.83 246.163 238.41 249.223 229.87 248.353C214.57 246.783 192.83 238.333 174.14 219.683C155.45 200.993 147 179.253 145.47 163.953C144.6 155.413 147.66 147.003 153.72 140.933C156.48 138.173 158.79 136.433 161.27 134.743C165.85 131.653 172.08 133.713 173.81 138.913L180.08 157.723C181.81 162.883 181.03 166.143 178.8 168.323L173.81 173.363C171.33 175.843 170.92 179.673 172.82 182.643C175.58 186.973 180.78 193.903 190.35 203.473C199.92 213.043 206.85 218.243 211.18 221.003C214.15 222.903 217.99 222.493 220.46 220.013L225.5 215.023C227.69 212.793 230.95 212.013 236.1 213.743L254.91 220.013C260.11 221.743 262.17 227.973 259.04 232.553Z" fill="white"></path>
  </g>
  <g class="sprite" id="twitter">
    <path d="M228.348 180.421L308.718 94.4609H278.198L215.118 161.941L166.808 94.4609H83.3281L167.828 212.501L83.3281 302.891H113.848L181.068 230.991L232.538 302.891H316.018L228.348 180.431V180.421ZM126.338 116.561H155.438L272.998 280.771H243.898L126.338 116.561Z" fill="white"></path>
  </g>
  <g class="sprite" id="youtube">
    <path d="M285.282 114.488H114.042C97.1224 114.488 83.4023 128.208 83.4023 145.118V252.218C83.4023 269.138 97.1224 282.848 114.042 282.848H285.282C302.192 282.848 315.912 269.138 315.912 252.218V145.118C315.912 128.208 302.192 114.488 285.282 114.488ZM227.162 206.058L179.542 229.858C174.042 232.608 167.582 228.618 167.582 222.478V174.878C167.582 168.738 174.052 164.748 179.542 167.488L227.162 191.288C233.242 194.328 233.242 203.018 227.162 206.058Z" fill="white"></path>
  </g>
</svg>


