<svg width="100%" height="100%" viewBox="0 0 17 17" preserveAspectRatio="xMidYMid meet" fill="none" xmlns="http://www.w3.org/2000/svg">
<path d="M15.5822 3.73608C15.0331 3.97767 14.4515 4.13725 13.8561 4.20969C14.4833 3.83247 14.9528 3.2409 15.1777 2.54437C14.5849 2.88929 13.9391 3.13382 13.2665 3.26806C12.855 2.82701 12.3202 2.52008 11.7318 2.38723C11.1434 2.25438 10.5286 2.30177 9.96757 2.52322C9.40643 2.74467 8.92507 3.12993 8.58599 3.62883C8.24692 4.12773 8.06593 4.71717 8.06655 5.32038C8.06676 5.55144 8.09275 5.78175 8.14409 6.00705C6.94847 5.94978 5.77839 5.64118 4.71006 5.10136C3.64173 4.56154 2.69917 3.80262 1.94382 2.87408C1.67449 3.3326 1.53403 3.85537 1.53726 4.38712C1.53692 4.88222 1.65877 5.36976 1.892 5.80648C2.12523 6.2432 2.46263 6.61563 2.87428 6.89071C2.39695 6.87543 1.93017 6.74634 1.51282 6.51419V6.55121C1.5124 7.24571 1.75233 7.91896 2.19188 8.4567C2.63141 8.99437 3.24349 9.36341 3.92419 9.50117C3.48332 9.62013 3.02127 9.63808 2.57251 9.55356C2.76572 10.1512 3.1407 10.6737 3.64512 11.048C4.14954 11.4223 4.75822 11.6298 5.38624 11.6415C4.3226 12.4766 3.00903 12.9298 1.65672 12.9282C1.4177 12.9277 1.1789 12.9139 0.941406 12.887C2.32048 13.7694 3.92368 14.2378 5.56088 14.2366C6.6858 14.2448 7.80118 14.0295 8.84215 13.6032C9.88319 13.1769 10.8292 12.548 11.6251 11.7531C12.4211 10.9581 13.0513 10.0129 13.4789 8.97251C13.9067 7.93203 14.1234 6.81693 14.1166 5.69201C14.1166 5.56417 14.1166 5.43564 14.1076 5.30711C14.6981 4.8815 15.2074 4.35314 15.6108 3.74726L15.5822 3.73608Z" fill="currentColor"/>
</svg>
