<svg width="100%" height="100%" viewBox="0 0 17 17" preserveAspectRatio="xMidYMid meet" fill="none" xmlns="http://www.w3.org/2000/svg">
<path d="M15.2656 5.37877C15.252 4.79542 15.1427 4.21826 14.9422 3.67027C14.7652 3.20048 14.4867 2.77554 14.1266 2.42581C13.7769 2.06566 13.352 1.78717 12.8821 1.61023C12.3342 1.40974 11.757 1.30049 11.1737 1.28681C10.4284 1.24463 10.1893 1.24463 8.27694 1.24463C6.36455 1.24463 6.1255 1.24463 5.38023 1.28681C4.79688 1.30049 4.21972 1.40974 3.67174 1.61023C3.20194 1.78717 2.77701 2.06566 2.42728 2.42581C2.0669 2.77397 1.79041 3.19951 1.61873 3.67027C1.41213 4.21681 1.30038 4.79461 1.28828 5.37877C1.24609 6.12404 1.24609 6.36309 1.24609 8.27548C1.24609 10.1879 1.24609 10.4269 1.28828 11.1722C1.30038 11.7563 1.41213 12.3342 1.61873 12.8807C1.79041 13.3515 2.0669 13.777 2.42728 14.1251C2.77701 14.4853 3.20194 14.7638 3.67174 14.9407C4.21972 15.1412 4.79688 15.2505 5.38023 15.2641C6.1255 15.3063 6.36455 15.3063 8.27694 15.3063C10.1893 15.3063 10.4284 15.3063 11.1737 15.2641C11.757 15.2505 12.3342 15.1412 12.8821 14.9407C13.3486 14.7572 13.7723 14.4796 14.1267 14.1252C14.4811 13.7708 14.7587 13.3471 14.9422 12.8807C15.1427 12.3327 15.252 11.7555 15.2656 11.1722C15.2656 10.4269 15.3078 10.1879 15.3078 8.27548C15.3078 6.36309 15.3078 6.12404 15.2656 5.37877ZM14.0001 11.0878C13.9949 11.5341 13.9141 11.9763 13.761 12.3956C13.6434 12.6988 13.4638 12.9742 13.2338 13.2042C13.0038 13.4342 12.7284 13.6138 12.4251 13.7314C12.0059 13.8845 11.5637 13.9653 11.1174 13.9705C10.4143 14.0056 10.1542 14.0127 8.30507 14.0127C6.45595 14.0127 6.19581 14.0127 5.49273 13.9705C5.0292 13.9809 4.56747 13.9094 4.12874 13.7595C3.82549 13.6419 3.55009 13.4623 3.32009 13.2323C3.09009 13.0023 2.91053 12.7269 2.79288 12.4237C2.63662 11.9956 2.55574 11.5436 2.55383 11.0878C2.55383 10.3847 2.51165 10.1246 2.51165 8.27548C2.51165 6.42636 2.51165 6.16622 2.55383 5.46314C2.55574 5.00738 2.63662 4.55541 2.79288 4.12728C2.91053 3.82403 3.09009 3.54862 3.32009 3.31862C3.55009 3.08862 3.82549 2.90907 4.12874 2.79142C4.55687 2.63516 5.00885 2.55427 5.4646 2.55237C6.16769 2.55237 6.42783 2.51018 8.27694 2.51018C10.1261 2.51018 10.3862 2.51018 11.0893 2.55237C11.5356 2.55749 11.9778 2.63832 12.397 2.79142C12.7003 2.90907 12.9757 3.08862 13.2056 3.31862C13.4357 3.54862 13.6153 3.82403 13.7329 4.12728C13.8987 4.5537 13.9892 5.00573 14.0001 5.46314C14.0352 6.16622 14.0422 6.42636 14.0422 8.27548C14.0422 10.1246 14.0352 10.3847 14.0001 11.0878Z" fill="currentColor"/>
<path d="M8.27651 4.66187C7.56175 4.66187 6.86305 4.87382 6.26876 5.27092C5.67446 5.66801 5.21126 6.23242 4.93774 6.89276C4.66421 7.5531 4.59265 8.27973 4.73209 8.98078C4.87153 9.68176 5.21572 10.3257 5.72112 10.8311C6.22653 11.3365 6.87048 11.6807 7.57145 11.8201C8.2725 11.9596 8.99914 11.888 9.65947 11.6145C10.3198 11.341 10.8842 10.8778 11.2813 10.2835C11.6784 9.68921 11.8904 8.99048 11.8904 8.27573C11.8904 7.31728 11.5096 6.39807 10.8319 5.72034C10.1542 5.04261 9.23495 4.66187 8.27651 4.66187ZM8.27651 10.617C7.81345 10.617 7.36081 10.4797 6.9758 10.2224C6.59075 9.96517 6.29066 9.59949 6.11345 9.17167C5.93625 8.74391 5.88988 8.27312 5.98022 7.81893C6.07056 7.36481 6.29355 6.9476 6.62097 6.62019C6.94838 6.29277 7.36559 6.06978 7.81971 5.97944C8.2739 5.8891 8.74469 5.93547 9.17245 6.11267C9.60027 6.28988 9.96595 6.58997 10.2232 6.97502C10.4805 7.36003 10.6178 7.81267 10.6178 8.27573C10.6178 8.58318 10.5572 8.88762 10.4395 9.17167C10.3219 9.45578 10.1495 9.71382 9.93206 9.93128C9.7146 10.1487 9.45656 10.3211 9.17245 10.4388C8.8884 10.5565 8.58397 10.617 8.27651 10.617Z" fill="currentColor"/>
<path d="M12.0318 3.67728C11.865 3.67728 11.7019 3.72676 11.5631 3.81946C11.4244 3.91217 11.3162 4.04394 11.2523 4.19811C11.1885 4.35227 11.1718 4.52191 11.2044 4.68557C11.2369 4.84923 11.3172 4.99957 11.4353 5.11756C11.5532 5.23556 11.7036 5.31591 11.8672 5.34847C12.0309 5.38102 12.2005 5.36431 12.3547 5.30045C12.5089 5.2366 12.6406 5.12846 12.7334 4.98971C12.826 4.85096 12.8755 4.68784 12.8755 4.52098C12.8755 4.29721 12.7867 4.08261 12.6284 3.92439C12.4702 3.76616 12.2556 3.67728 12.0318 3.67728Z" fill="currentColor"/>
</svg>
