<svg width="100%" height="100%" viewBox="0 0 17 17" fill="none" xmlns="http://www.w3.org/2000/svg">
    <path
        d="M14.4125 14.4124H11.8376V10.3804C11.8376 9.41914 11.8183 8.18203 10.4971 8.18203C9.15582 8.18203 8.95101 9.22813 8.95101 10.3094V14.4124H6.37818V6.12155H8.84964V7.25178H8.88274C9.13044 6.82892 9.48806 6.48109 9.91767 6.24529C10.3473 6.00948 10.8327 5.89451 11.3225 5.9126C13.9291 5.9126 14.4111 7.6283 14.4111 9.86117V14.4124H14.4125ZM3.47296 4.98718C3.17735 4.9876 2.88826 4.90032 2.64227 4.7364C2.39627 4.57248 2.20441 4.33929 2.09097 4.06631C1.97753 3.79333 1.9476 3.49284 2.00498 3.20285C2.06234 2.91287 2.20443 2.64641 2.41327 2.43719C2.6221 2.22797 2.8883 2.08539 3.17818 2.02749C3.46806 1.96958 3.76861 1.99895 4.04179 2.11188C4.31498 2.22482 4.54853 2.41625 4.7129 2.66194C4.87727 2.90764 4.96508 3.19656 4.96522 3.49217C4.96549 3.68834 4.9271 3.88264 4.85223 4.06397C4.77737 4.2453 4.66751 4.41009 4.52892 4.54894C4.39034 4.68778 4.22574 4.79795 4.04455 4.87315C3.86336 4.94835 3.66913 4.98709 3.47296 4.98718ZM4.76248 14.4124H2.18275V6.12155H4.76248V14.4124Z"
        fill="currentColor" />
</svg>