<svg width="100%" height="100%" viewBox="0 0 17 17" preserveAspectRatio="xMidYMid meet" fill="none"
    xmlns="http://www.w3.org/2000/svg">
    <path
        d="M16.2048 4.27703C16.1088 3.93336 15.9259 3.62027 15.6735 3.36803C15.4211 3.1158 15.1079 2.93295 14.7642 2.83719C13.4741 2.49122 8.28297 2.49122 8.28297 2.49122C8.28297 2.49122 3.10444 2.48413 1.80094 2.83719C1.45722 2.93295 1.14402 3.1158 0.891644 3.36803C0.639274 3.62027 0.456256 3.93336 0.360314 4.27703C0.115589 5.5979 -0.00498822 6.93873 0.000158 8.2821C-0.00442867 9.62012 0.115881 10.9557 0.359526 12.2714C0.455303 12.6155 0.638328 12.9289 0.890863 13.1815C1.1434 13.434 1.45688 13.6171 1.80094 13.7128C3.08946 14.0596 8.28297 14.0596 8.28297 14.0596C8.28297 14.0596 13.4607 14.0596 14.7642 13.7128C15.1079 13.6171 15.4211 13.4342 15.6735 13.182C15.9259 12.9298 16.1088 12.6167 16.2048 12.273C16.4434 10.9568 16.5589 9.6213 16.55 8.28368C16.5598 6.9403 16.4443 5.59894 16.2048 4.27703ZM6.62562 10.7591V5.7941L10.9467 8.27895L6.62562 10.7591Z"
        fill="currentColor" />
</svg>